HIERARCHY
ROOT Hips
{
	OFFSET 0.000000 88.474243 0.000000
	CHANNELS 6 Xposition Yposition Zposition Zrotation Yrotation Xrotation 
	JOINT Hips_Spine
	{
		OFFSET 0.000000 0.000000 0.000000
		CHANNELS 3 Zrotation Yrotation Xrotation
		JOINT Spine
		{
			OFFSET 0.005100 8.711998 -0.691000
			CHANNELS 3 Zrotation Yrotation Xrotation
			JOINT Spine1
			{
				OFFSET -0.009200 8.660301 -1.275000
				CHANNELS 3 Zrotation Yrotation Xrotation
				JOINT Spine2
				{
					OFFSET 0.006300 9.852501 -1.857000
					CHANNELS 3 Zrotation Yrotation Xrotation
					JOINT Spine2_Neck
					{
						OFFSET 0.000000 0.000000 0.000000
						CHANNELS 3 Zrotation Yrotation Xrotation
						JOINT Neck
						{
							OFFSET 0.016300 11.420799 -0.263300
							CHANNELS 3 Zrotation Yrotation Xrotation
							End Site #name: Head
							{
								OFFSET -0.019200 9.262405 2.362500
							}
						}
					}
					JOINT Spine2_LeftShoulder
					{
						OFFSET 0.000000 0.000000 0.000000
						CHANNELS 3 Zrotation Yrotation Xrotation
						JOINT LeftShoulder
						{
							OFFSET 5.616900 6.732201 -0.345700
							CHANNELS 3 Zrotation Yrotation Xrotation
							JOINT LeftArm
							{
								OFFSET 10.664888 -0.183372 -2.440700
								CHANNELS 3 Zrotation Yrotation Xrotation
								JOINT LeftForeArm
								{
									OFFSET 27.459126 0.000000 0.000000
									CHANNELS 3 Zrotation Yrotation Xrotation
									End Site #name: LeftHand
									{
										OFFSET 21.306858 0.000000 0.000000
									}
								}
							}
						}
					}
					JOINT Spine2_RightShoulder
					{
						OFFSET 0.000000 0.000000 0.000000
						CHANNELS 3 Zrotation Yrotation Xrotation
						JOINT RightShoulder
						{
							OFFSET -5.580300 6.737503 -0.344400
							CHANNELS 3 Zrotation Yrotation Xrotation
							JOINT RightArm
							{
								OFFSET -10.679335 -0.188484 -2.383900
								CHANNELS 3 Zrotation Yrotation Xrotation
								JOINT RightForeArm
								{
									OFFSET -27.503529 0.000000 0.000000
									CHANNELS 3 Zrotation Yrotation Xrotation
									End Site #name: RightHand
									{
										OFFSET -21.306808 0.000000 0.000000
									}
								}
							}
						}
					}
				}
			}
		}
	}
	JOINT Hips_LeftUpLeg
	{
		OFFSET 0.000000 0.000000 0.000000
		CHANNELS 3 Zrotation Yrotation Xrotation
		JOINT LeftUpLeg
		{
			OFFSET 6.857700 -6.739601 0.312100
			CHANNELS 3 Zrotation Yrotation Xrotation
			JOINT LeftLeg
			{
				OFFSET -0.367590 -34.731552 -4.572400
				CHANNELS 3 Zrotation Yrotation Xrotation
				End Site #name: LeftFoot
				{
					OFFSET 0.367590 -34.656704 -6.067400
				}
			}
		}
	}
	JOINT Hips_RightUpLeg
	{
		OFFSET 0.000000 0.000000 0.000000
		CHANNELS 3 Zrotation Yrotation Xrotation
		JOINT RightUpLeg
		{
			OFFSET -6.876100 -6.733299 0.301000
			CHANNELS 3 Zrotation Yrotation Xrotation
			JOINT RightLeg
			{
				OFFSET 0.347353 -34.795158 -4.515900
				CHANNELS 3 Zrotation Yrotation Xrotation
				End Site #name: RightFoot
				{
					OFFSET -0.347353 -34.589367 -6.070300
				}
			}
		}
	}
}
MOTION
Frames: 6
Frame Time: 0.041667
0.149762 0.065169 0.023490 -0.119038 13.993425 -6.683130 0.000000 0.000000 0.000000 -0.290356 -0.467142 1.071123 -0.668910 -0.652492 -0.190347 0.000000 0.000000 0.000000 -0.651882 -0.542537 -1.038136 2.480876 -0.694737 -3.022866 -0.299033 -1.361568 -1.925520 -17.382074 -12.247202 2.831092 -42.263474 -0.897848 16.791692 0.672564 -24.808984 4.494508 -0.956524 -0.387529 0.218068 13.566057 11.281892 4.428173 58.591303 -2.398772 -3.556723 0.099454 44.566673 0.690355 0.000000 0.000000 0.000000 -8.030518 15.584065 -4.772964 0.252814 0.748735 20.738285 0.000000 0.000000 0.000000 -3.940999 8.708665 -9.158438 4.078563 -3.681626 0.679317 
0.555387 0.037739 0.173985 1.198871 16.718187 -7.399639 0.000000 0.000000 0.000000 -2.651030 -1.394406 -0.259247 -0.464106 -0.669905 -0.461314 0.000000 0.000000 0.000000 -0.758770 -0.603123 -1.631522 3.734232 -1.832828 -2.053595 -0.884152 -0.910503 -2.401777 -24.126793 -8.498075 1.299689 -36.976042 0.876710 13.284064 -0.278684 -18.056295 1.666195 -0.967341 -0.569967 -0.302188 14.081893 8.494165 1.805570 60.871513 0.619128 -6.905028 0.046899 43.411307 -0.417926 0.000000 0.000000 -0.000000 -10.097809 13.940233 -3.385622 -0.831064 2.679641 20.228427 0.000000 0.000000 0.000000 -7.336508 9.299962 -8.626888 4.043523 -5.360015 1.083349 
0.801861 0.036508 0.192642 2.237800 17.441706 -7.359524 -0.000000 0.000000 0.000000 -3.169795 -1.794252 -0.560413 -0.455843 -0.457214 -0.679410 0.000000 0.000000 0.000000 -0.178674 -0.895144 -1.779038 3.667788 -2.045217 -3.213833 -0.849512 -0.966051 -2.468930 -28.988841 -7.138295 1.587697 -35.091112 7.629094 7.929218 -0.701172 -17.640068 2.045935 -0.613192 -0.721193 -0.410079 13.190407 7.378026 1.794870 61.147658 3.197244 -7.381631 0.257760 37.694326 -0.387346 0.000000 -0.000000 -0.000000 -11.588501 13.074085 -2.486135 -1.567455 3.036239 19.193071 0.000000 0.000000 0.000000 -9.138897 9.285056 -10.077555 3.673218 -7.159314 3.606965 
1.080408 0.024916 0.156081 2.644984 17.509889 -6.816043 -0.000000 0.000000 0.000000 -3.540675 -1.664763 -0.137494 -0.328393 -0.559974 -0.829052 0.000000 0.000000 0.000000 0.214353 -1.016703 -1.714745 3.615403 -2.812623 -2.855721 -0.652089 -1.124026 -2.438496 -32.221384 -6.094192 2.012370 -33.295174 8.015401 6.324232 -0.192742 -15.627999 3.995819 -0.348240 -0.826581 -0.323132 12.190655 7.413792 1.868969 61.365740 5.235594 -6.977550 0.368274 38.866029 -0.346524 0.000000 -0.000000 -0.000000 -12.851546 12.796107 -2.448476 -1.687065 3.328870 18.280138 0.000000 0.000000 0.000000 -10.320293 7.958849 -12.040156 3.156095 -6.866057 7.200712 
1.431047 0.019859 0.106773 2.769016 18.256918 -6.218871 -0.000000 0.000000 -0.000000 -3.885068 -1.238219 -0.333522 -0.367617 -0.580674 -0.756810 0.000000 0.000000 0.000000 0.227967 -1.056212 -1.685385 3.479835 -3.652474 -2.251555 -0.587399 -1.239847 -2.269506 -35.080224 -4.687076 2.401193 -30.175044 7.020139 7.458958 0.367394 -12.374144 5.852992 -0.283720 -0.950798 -0.208927 10.727940 7.828714 1.922136 62.449823 6.396852 -6.440637 0.497497 41.166429 -0.352468 0.000000 -0.000000 -0.000000 -13.763091 12.614662 -2.820125 -1.609515 3.544054 18.045835 0.000000 0.000000 0.000000 -11.370161 6.854089 -13.307696 2.925051 -6.545489 9.561714 
1.826573 0.022709 0.050550 2.775310 18.835870 -5.909425 -0.000000 0.000000 -0.000000 -4.210227 -0.999118 -0.688305 -0.450385 -0.574391 -0.692281 0.000000 0.000000 0.000000 0.094897 -1.086293 -1.635346 3.318023 -4.233355 -1.767355 -0.631053 -1.315652 -2.162830 -36.961112 -3.325777 2.343960 -28.246411 6.238050 8.584048 0.663909 -9.647311 6.988498 -0.331898 -1.010485 -0.154852 9.596996 8.008551 1.891027 63.568734 6.359860 -7.004539 0.594497 41.218775 -0.328595 0.000000 -0.000000 -0.000000 -14.342481 12.611292 -3.165741 -1.516511 3.671647 18.236314 0.000000 0.000000 0.000000 -12.160278 6.257012 -13.765262 3.081668 -5.808051 10.772076 
